<svg width="18" height="21" viewBox="0 0 18 21" fill="none" xmlns="http://www.w3.org/2000/svg">
<path d="M17.3984 14.6797C16.6562 13.8594 15.2109 12.6484 15.2109 8.625C15.2109 5.61719 13.1016 3.19531 10.2109 2.57031V1.75C10.2109 1.08594 9.66406 0.5 9 0.5C8.29688 0.5 7.75 1.08594 7.75 1.75V2.57031C4.85938 3.19531 2.75 5.61719 2.75 8.625C2.75 12.6484 1.30469 13.8594 0.5625 14.6797C0.328125 14.9141 0.210938 15.2266 0.25 15.5C0.25 16.1641 0.71875 16.75 1.5 16.75H16.4609C17.2422 16.75 17.7109 16.1641 17.75 15.5C17.75 15.2266 17.6328 14.9141 17.3984 14.6797ZM2.86719 14.875C3.6875 13.8203 4.58594 11.9844 4.625 8.66406C4.625 8.66406 4.625 8.66406 4.625 8.625C4.625 6.24219 6.57812 4.25 9 4.25C11.3828 4.25 13.375 6.24219 13.375 8.625C13.375 8.66406 13.3359 8.66406 13.3359 8.66406C13.375 11.9844 14.2734 13.8203 15.0938 14.875H2.86719ZM9 20.5C10.3672 20.5 11.4609 19.4062 11.4609 18H6.5C6.5 19.4062 7.59375 20.5 9 20.5Z" fill="#191919"/>
</svg>
