<svg width="12" height="16" viewBox="0 0 12 16" fill="none" xmlns="http://www.w3.org/2000/svg">
<path d="M8.40625 7.0625C8.28125 6.9375 8.09375 6.9375 7.96875 7.0625L5.21875 9.78125L4.03125 8.59375C3.90625 8.46875 3.6875 8.46875 3.59375 8.59375L2.84375 9.3125C2.71875 9.4375 2.71875 9.625 2.84375 9.75L4.96875 11.9062C5.09375 12.0312 5.3125 12.0312 5.40625 11.9375L9.125 8.25C9.25 8.125 9.25 7.9375 9.125 7.8125L8.40625 7.0625ZM10.5 2H8C8 0.90625 7.09375 0 6 0C4.875 0 4 0.90625 4 2H1.5C0.65625 2 0 2.6875 0 3.5V14.5C0 15.3438 0.65625 16 1.5 16H10.5C11.3125 16 12 15.3438 12 14.5V3.5C12 2.6875 11.3125 2 10.5 2ZM6 1.5C6.25 1.5 6.5 1.75 6.5 2C6.5 2.28125 6.25 2.5 6 2.5C5.71875 2.5 5.5 2.28125 5.5 2C5.5 1.75 5.71875 1.5 6 1.5ZM10.5 14.25C10.5 14.4062 10.375 14.5 10.25 14.5H1.75C1.59375 14.5 1.5 14.4062 1.5 14.25V3.75C1.5 3.625 1.59375 3.5 1.75 3.5H3V4.5C3 4.78125 3.21875 5 3.5 5H8.5C8.75 5 9 4.78125 9 4.5V3.5H10.25C10.375 3.5 10.5 3.625 10.5 3.75V14.25Z" fill="#767676"/>
</svg>
