<svg width="23" height="19" viewBox="0 0 23 19" fill="none" xmlns="http://www.w3.org/2000/svg">
<path d="M19.3906 2.03906C17.125 0.125 13.6484 0.398438 11.5 2.625C9.3125 0.398438 5.83594 0.125 3.57031 2.03906C0.640625 4.5 1.07031 8.52344 3.17969 10.6719L10.0156 17.6641C10.4062 18.0547 10.9141 18.2891 11.5 18.2891C12.0469 18.2891 12.5547 18.0547 12.9453 17.6641L19.8203 10.6719C21.8906 8.52344 22.3203 4.5 19.3906 2.03906ZM18.4531 9.34375L11.6172 16.3359C11.5391 16.4141 11.4609 16.4141 11.3438 16.3359L4.50781 9.34375C3.0625 7.89844 2.78906 5.16406 4.78125 3.48438C6.30469 2.19531 8.64844 2.39062 10.1328 3.875L11.5 5.28125L12.8672 3.875C14.3125 2.39062 16.6562 2.19531 18.1797 3.44531C20.1719 5.16406 19.8984 7.89844 18.4531 9.34375Z" fill="#767676"/>
</svg>
