<svg width="24" height="19" viewBox="0 0 24 19" fill="none" xmlns="http://www.w3.org/2000/svg">
<path d="M23.0156 9.1875L13.3672 1.25781C13.0547 0.984375 12.4297 0.789062 12 0.789062C11.5312 0.789062 10.9062 0.984375 10.5938 1.25781L0.945312 9.1875C0.828125 9.30469 0.75 9.5 0.75 9.65625C0.75 9.77344 0.789062 9.96875 0.867188 10.0469L1.29688 10.5547C1.375 10.6719 1.60938 10.75 1.76562 10.75C1.88281 10.75 2.07812 10.7109 2.15625 10.6328L3.25 9.73438V17C3.25 17.7031 3.79688 18.25 4.5 18.25H9.5C10.1641 18.25 10.7109 17.7031 10.75 17V12.9375H13.25V17C13.25 17.7031 13.7969 18.25 14.5 18.25H19.5C20.1641 18.25 20.7109 17.7031 20.75 17.0391V9.73438L21.8047 10.6328C21.8828 10.7109 22.0781 10.7891 22.1953 10.7891C22.3516 10.7891 22.5859 10.6719 22.7031 10.5547L23.0938 10.0469C23.1719 9.96875 23.25 9.77344 23.25 9.65625C23.25 9.5 23.1328 9.30469 23.0156 9.1875ZM18.8359 16.375H15.125V12.3125C15.0859 11.6484 14.5391 11.1016 13.875 11.0625H10.125C9.42188 11.1016 8.875 11.6484 8.875 12.3125V16.375H5.125V8.21094L12 2.54688L18.875 8.21094L18.8359 16.375Z" fill="#007C7C"/>
</svg>
