<svg width="26" height="21" viewBox="0 0 26 21" fill="none" xmlns="http://www.w3.org/2000/svg">
<path d="M24.875 14.25H23V3C23 1.63281 21.8672 0.5 20.5 0.5H5.5C4.09375 0.5 3 1.63281 3 3V14.25H1.125C0.773438 14.25 0.5 14.5625 0.5 14.875V16.75C0.5 18.8203 2.17969 20.5 4.25 20.5H21.75C23.7812 20.5 25.5 18.8203 25.5 16.75V14.875C25.5 14.5625 25.1875 14.25 24.875 14.25ZM4.875 3C4.875 2.6875 5.14844 2.375 5.5 2.375H20.5C20.8125 2.375 21.125 2.6875 21.125 3V14.25H4.875V3ZM23.625 16.75C23.625 17.8047 22.7656 18.625 21.75 18.625H4.25C3.19531 18.625 2.375 17.8047 2.375 16.75V16.125H9.40625C9.64062 16.5156 10.0312 16.75 10.5 16.75H15.5C15.9297 16.75 16.3203 16.5156 16.5547 16.125H23.625V16.75Z" fill="#191919"/>
</svg>
