<svg width="21" height="23" viewBox="0 0 21 23" fill="none" xmlns="http://www.w3.org/2000/svg">
<path d="M17.6875 1.77344L1.4375 11.1484C0.0703125 11.9297 0.1875 13.9219 1.63281 14.5078L6.125 16.3438V19.625C6.125 21.4609 8.42969 22.2031 9.48438 20.7578L11.2031 18.4531L15.5781 20.25C15.8125 20.3672 16.0469 20.4062 16.2812 20.4062C16.5938 20.4062 16.9062 20.3281 17.2188 20.1719C17.7266 19.8594 18.0391 19.3906 18.1562 18.8047L20.4609 3.6875C20.6953 2.125 19.0156 0.992188 17.6875 1.77344ZM8 19.625V17.125L9.40625 17.7109L8 19.625ZM16.2812 18.5312L10.2656 16.0312L15.7734 8.14062C16.1641 7.51562 15.3828 6.8125 14.8359 7.32031L6.55469 14.5078L2.375 12.75L18.625 3.375L16.2812 18.5312Z" fill="#767676"/>
</svg>
