<svg width="21" height="21" viewBox="0 0 21 21" fill="none" xmlns="http://www.w3.org/2000/svg">
<path d="M19.7578 2.72656L18.2734 1.24219C17.8047 0.773438 17.1406 0.5 16.5156 0.5C15.8906 0.5 15.2266 0.773438 14.7578 1.24219L11.8281 4.17188L10.5 5.5L0.96875 15.0312L0.5 19.4844C0.421875 20.0312 0.851562 20.5 1.39844 20.5C1.4375 20.5 1.47656 20.5 1.51562 20.5L5.96875 20.0312L15.5 10.5L16.8281 9.17188L19.7578 6.24219C20.7344 5.26562 20.7344 3.70312 19.7578 2.72656ZM5.10938 18.2344L2.49219 18.5078L2.76562 15.8906L11.7891 6.82812L13 5.61719L15.3828 8L14.1719 9.21094L5.10938 18.2344ZM18.4297 4.91406L16.7109 6.67188L14.3281 4.28906L16.0859 2.57031C16.2422 2.41406 16.4375 2.375 16.5156 2.375C16.5938 2.375 16.7891 2.41406 16.9453 2.57031L18.4297 4.05469C18.6641 4.28906 18.6641 4.67969 18.4297 4.91406Z" fill="#191919"/>
</svg>
