<svg width="15" height="15" viewBox="0 0 15 15" fill="none" xmlns="http://www.w3.org/2000/svg">
<path d="M14.1406 13.5742L10.832 10.2656C10.75 10.2109 10.668 10.1562 10.5859 10.1562H10.2305C11.0781 9.17188 11.625 7.85938 11.625 6.4375C11.625 3.32031 9.05469 0.75 5.9375 0.75C2.79297 0.75 0.25 3.32031 0.25 6.4375C0.25 9.58203 2.79297 12.125 5.9375 12.125C7.35938 12.125 8.64453 11.6055 9.65625 10.7578V11.1133C9.65625 11.1953 9.68359 11.2773 9.73828 11.3594L13.0469 14.668C13.1836 14.8047 13.4023 14.8047 13.5117 14.668L14.1406 14.0391C14.2773 13.9297 14.2773 13.7109 14.1406 13.5742ZM5.9375 10.8125C3.50391 10.8125 1.5625 8.87109 1.5625 6.4375C1.5625 4.03125 3.50391 2.0625 5.9375 2.0625C8.34375 2.0625 10.3125 4.03125 10.3125 6.4375C10.3125 8.87109 8.34375 10.8125 5.9375 10.8125Z" fill="#191919"/>
</svg>
