<svg width="20" height="15" viewBox="0 0 20 15" fill="none" xmlns="http://www.w3.org/2000/svg">
<path d="M2.8125 2.375C2.9375 2.46875 3.125 2.53125 3.25 2.53125C3.65625 2.53125 4 2.1875 4 1.78125C4 1.5625 3.84375 1.25 3.65625 1.15625L2.15625 0.15625C2.03125 0.0625 1.84375 0 1.71875 0C1.3125 0 0.96875 0.34375 0.96875 0.75C0.96875 0.96875 1.125 1.28125 1.3125 1.375L2.8125 2.375ZM16.75 2.5C16.875 2.5 17.0312 2.46875 17.1562 2.375L18.6562 1.375C18.8438 1.28125 19 1 19 0.75C19 0.34375 18.6562 0 18.25 0C18.125 0 17.9375 0.0625 17.8125 0.15625L16.3125 1.15625C16.125 1.25 16 1.53125 16 1.75C16 2.1875 16.3125 2.5 16.75 2.5ZM3.5 6C3.5 5.59375 3.15625 5.25 2.75 5.25H0.75C0.3125 5.25 0 5.59375 0 6C0 6.4375 0.3125 6.75 0.75 6.75H2.75C3.15625 6.75 3.5 6.4375 3.5 6ZM19.25 5.25H17.25C16.8125 5.25 16.5 5.59375 16.5 6C16.5 6.4375 16.8125 6.75 17.25 6.75H19.25C19.6562 6.75 20 6.4375 20 6C20 5.59375 19.6562 5.25 19.25 5.25ZM16 10.5L15.2812 4C15.1562 2.90625 14.1562 2.03125 13.0625 2H6.90625C5.8125 2.03125 4.8125 2.90625 4.6875 4L4 10.5C3.4375 10.5 3 10.9688 3 11.5V14C3 14.5625 3.4375 15 4 15H16C16.5312 15 17 14.5625 17 14V11.5C17 10.9688 16.5312 10.5 16 10.5ZM6.15625 4.15625C6.21875 3.8125 6.53125 3.53125 6.90625 3.5H13.0625C13.4375 3.5 13.75 3.8125 13.8125 4.15625L14.4688 10.5H7.875L8.46875 4.875C8.46875 4.84375 8.5 4.84375 8.5 4.84375C8.5 4.71875 8.375 4.59375 8.28125 4.59375L7.78125 4.53125C7.75 4.53125 7.75 4.5 7.75 4.5C7.625 4.5 7.5 4.625 7.5 4.71875L6.84375 10.5H5.5L6.15625 4.15625ZM15.5 13.5H4.5V12H15.5V13.5Z" fill="#767676"/>
</svg>
