<svg width="21" height="21" viewBox="0 0 21 21" fill="none" xmlns="http://www.w3.org/2000/svg">
<path d="M10.5 0.8125C5.14844 0.8125 0.8125 5.14844 0.8125 10.5C0.8125 15.8516 5.14844 20.1875 10.5 20.1875C15.8516 20.1875 20.1875 15.8516 20.1875 10.5C20.1875 5.14844 15.8516 0.8125 10.5 0.8125ZM10.5 18.3125C6.16406 18.3125 2.6875 14.8359 2.6875 10.5C2.6875 6.20312 6.16406 2.6875 10.5 2.6875C14.7969 2.6875 18.3125 6.20312 18.3125 10.5C18.3125 14.8359 14.7969 18.3125 10.5 18.3125ZM7.375 9.875C8.03906 9.875 8.625 9.32812 8.625 8.625C8.625 7.96094 8.03906 7.375 7.375 7.375C6.67188 7.375 6.125 7.96094 6.125 8.625C6.125 9.32812 6.67188 9.875 7.375 9.875ZM13.625 9.875C14.2891 9.875 14.875 9.32812 14.875 8.625C14.875 7.96094 14.2891 7.375 13.625 7.375C12.9219 7.375 12.375 7.96094 12.375 8.625C12.375 9.32812 12.9219 9.875 13.625 9.875ZM13.7812 12.7266C12.9609 13.7031 11.75 14.25 10.5 14.25C9.21094 14.25 8 13.7031 7.21875 12.7266C6.86719 12.3359 6.28125 12.2969 5.89062 12.6094C5.5 12.9219 5.42188 13.5469 5.77344 13.9375C6.94531 15.3438 8.66406 16.125 10.5 16.125C12.2969 16.125 14.0156 15.3438 15.1875 13.9375C15.5391 13.5469 15.5 12.9219 15.0703 12.6094C14.6797 12.2969 14.0938 12.3359 13.7812 12.7266Z" fill="#191919"/>
</svg>
