<svg width="19" height="21" viewBox="0 0 19 21" fill="none" xmlns="http://www.w3.org/2000/svg">
<path d="M17.625 3.625H14.3828L13.0547 1.4375C12.7422 0.929688 12.0391 0.5 11.4531 0.5H7.50781C6.92188 0.5 6.21875 0.929688 5.90625 1.4375L4.57812 3.625H1.375C1.02344 3.625 0.75 3.9375 0.75 4.25V4.875C0.75 5.22656 1.02344 5.5 1.375 5.5H2L2.82031 18.7422C2.85938 19.7188 3.71875 20.5 4.69531 20.5H14.2656C15.2422 20.5 16.1016 19.7188 16.1406 18.7422L17 5.5H17.625C17.9375 5.5 18.25 5.22656 18.25 4.875V4.25C18.25 3.9375 17.9375 3.625 17.625 3.625ZM7.50781 2.375H11.4531L12.1953 3.625H6.76562L7.50781 2.375ZM14.2656 18.625H4.69531L3.875 5.5H15.0859L14.2656 18.625Z" fill="#191919"/>
</svg>
