<svg width="16" height="16" viewBox="0 0 16 16" fill="none" xmlns="http://www.w3.org/2000/svg">
<path d="M8 3.25C6.34375 3.25 5 4.59375 5 6.25C5 7.90625 6.34375 9.25 8 9.25C9.65625 9.25 11 7.90625 11 6.25C11 4.59375 9.65625 3.25 8 3.25ZM8 7.75C7.15625 7.75 6.5 7.09375 6.5 6.25C6.5 5.4375 7.15625 4.75 8 4.75C8.8125 4.75 9.5 5.4375 9.5 6.25C9.5 7.09375 8.8125 7.75 8 7.75ZM8 0.25C3.71875 0.25 0.25 3.71875 0.25 8C0.25 12.2812 3.71875 15.75 8 15.75C12.2812 15.75 15.75 12.2812 15.75 8C15.75 3.71875 12.2812 0.25 8 0.25ZM8 14.25C6.4375 14.25 5 13.6875 3.90625 12.75C4.375 12.0312 5.1875 11.5312 6.09375 11.5312C6.75 11.7188 7.375 11.8125 8 11.8125C8.59375 11.8125 9.21875 11.7188 9.875 11.5312C10.7812 11.5625 11.5938 12.0312 12.0625 12.75C10.9688 13.6875 9.53125 14.25 8 14.25ZM13.0625 11.625C12.3125 10.6562 11.125 10 9.78125 10C9.46875 10 8.96875 10.3125 8 10.3125C7 10.3125 6.5 10 6.1875 10C4.84375 10 3.65625 10.6562 2.90625 11.625C2.15625 10.625 1.75 9.375 1.75 8C1.75 4.5625 4.53125 1.75 8 1.75C11.4375 1.75 14.25 4.5625 14.25 8C14.25 9.375 13.8125 10.625 13.0625 11.625Z" fill="#767676"/>
</svg>
